HIERARCHY
ROOT Hips
{
	OFFSET 0.000000 0.000000 0.000000
	CHANNELS 6 Xposition Yposition Zposition Xrotation Yrotation Zrotation
	JOINT LeftUpLeg_virtual
	{
		OFFSET 0.000000 0.000000 0.000000
		CHANNELS 3 Xrotation Yrotation Zrotation
		JOINT LeftUpLeg
		{
			OFFSET 13.026900 -6.336304 -1.092800
			CHANNELS 3 Xrotation Yrotation Zrotation
			JOINT LeftLeg
			{
				OFFSET 0.524474 -46.096886 9.782700
				CHANNELS 3 Xrotation Yrotation Zrotation
				JOINT LeftFoot
				{
					OFFSET -0.524474 -53.427422 -12.948200
					CHANNELS 3 Xrotation Yrotation Zrotation
					JOINT LeftToeBase
					{
						OFFSET 0.192200 -14.009700 16.364100
						CHANNELS 3 Xrotation Yrotation Zrotation
						JOINT LeftToe_End
						{
							OFFSET -1.784700 -0.561700 9.474800
							CHANNELS 3 Xrotation Yrotation Zrotation
							End Site
							{
								OFFSET 0 0 0
							}
						}
					}
				}
			}
		}
	}
	JOINT RightUpLeg_virtual
	{
		OFFSET 0.000000 0.000000 0.000000
		CHANNELS 3 Xrotation Yrotation Zrotation
		JOINT RightUpLeg
		{
			OFFSET -12.883000 -6.336304 -1.092800
			CHANNELS 3 Xrotation Yrotation Zrotation
			JOINT RightLeg
			{
				OFFSET -0.524587 -46.096825 9.782800
				CHANNELS 3 Xrotation Yrotation Zrotation
				JOINT RightFoot
				{
					OFFSET 0.524587 -53.427383 -12.948300
					CHANNELS 3 Xrotation Yrotation Zrotation
					JOINT RightToeBase
					{
						OFFSET -0.192200 -14.009700 16.364100
						CHANNELS 3 Xrotation Yrotation Zrotation
						JOINT RightToe_End
						{
							OFFSET 1.784700 -0.561700 9.474800
							CHANNELS 3 Xrotation Yrotation Zrotation
							End Site
							{
								OFFSET 0 0 0
							}
						}
					}
				}
			}
		}
	}
	JOINT Spine_virtual
	{
		OFFSET 0.000000 0.000000 0.000000
		CHANNELS 3 Xrotation Yrotation Zrotation
		JOINT Spine
		{
			OFFSET 0.072000 7.257294 -0.789700
			CHANNELS 3 Xrotation Yrotation Zrotation
			JOINT Spine1
			{
				OFFSET 0.000000 12.508769 -0.658067
				CHANNELS 3 Xrotation Yrotation Zrotation
				JOINT Spine1_split
				{
					OFFSET 0.000000 12.508769 -0.658067
					CHANNELS 3 Xrotation Yrotation Zrotation
					JOINT Spine2
					{
						OFFSET 0.000000 12.508769 -0.658067
						CHANNELS 3 Xrotation Yrotation Zrotation
						JOINT Neck_virtual
						{
							OFFSET 0.000000 0.000000 0.000000
							CHANNELS 3 Xrotation Yrotation Zrotation
							JOINT Neck
							{
								OFFSET 0.000000 14.033295 7.520400
								CHANNELS 3 Xrotation Yrotation Zrotation
								JOINT Head
								{
									OFFSET 0.000000 8.198502 5.703100
									CHANNELS 3 Xrotation Yrotation Zrotation
									JOINT HeadTop_End
									{
										OFFSET 0.000000 17.760803 13.332701
										CHANNELS 3 Xrotation Yrotation Zrotation
										End Site
										{
											OFFSET 0 0 0
										}
									}
								}
							}
						}
						JOINT LeftShoulder_virtual
						{
							OFFSET 0.000000 0.000000 0.000000
							CHANNELS 3 Xrotation Yrotation Zrotation
							JOINT LeftShoulder
							{
								OFFSET 6.292450 5.785301 -0.669000
								CHANNELS 3 Xrotation Yrotation Zrotation
								JOINT LeftShoulder_split
								{
									OFFSET 6.292450 5.785301 -0.669000
									CHANNELS 3 Xrotation Yrotation Zrotation
									JOINT LeftArm
									{
										OFFSET 13.907140 -6.093903 1.965100
										CHANNELS 3 Xrotation Yrotation Zrotation
										JOINT LeftForeArm
										{
											OFFSET 34.140198 0.000000 0.000000
											CHANNELS 3 Xrotation Yrotation Zrotation
											JOINT LeftHand
											{
												OFFSET 40.960209 0.000000 0.000000
												CHANNELS 3 Xrotation Yrotation Zrotation
												End Site
												{
													OFFSET 0 0 0
												}
											}
										}
									}
								}
							}
						}
						JOINT RightShoulder_virtual
						{
							OFFSET 0.000000 0.000000 0.000000
							CHANNELS 3 Xrotation Yrotation Zrotation
							JOINT RightShoulder
							{
								OFFSET -6.292450 5.785301 -0.669000
								CHANNELS 3 Xrotation Yrotation Zrotation
								JOINT RightShoulder_split
								{
									OFFSET -6.292450 5.785301 -0.669000
									CHANNELS 3 Xrotation Yrotation Zrotation
									JOINT RightArm
									{
										OFFSET -13.907140 -6.093903 1.965100
										CHANNELS 3 Xrotation Yrotation Zrotation
										JOINT RightForeArm
										{
											OFFSET -34.140198 0.000000 0.000000
											CHANNELS 3 Xrotation Yrotation Zrotation
											JOINT RightHand
											{
												OFFSET -40.960209 0.000000 0.000000
												CHANNELS 3 Xrotation Yrotation Zrotation
												End Site
												{
													OFFSET 0 0 0
												}
											}
										}
									}
								}
							}
						}
					}
				}
			}
		}
	}
}
MOTION
Frames: 7
Frame Time: 0.03333333
0.337702 124.831810 -5.691513 0.000000 0.000000 0.000000 -86.408798 -4.284187 -0.735408 4.143967 18.240165 17.075101 -1.805480 3.919368 3.394215 14.870322 28.120246 -24.518224 -3.699150 -0.361040 -0.013345 0.000000 0.000000 0.000000 -88.036467 -0.133390 1.890190 7.786687 -20.172284 -10.792862 0.605030 -3.212305 -6.836828 21.100768 -32.245320 25.419539 -9.724431 0.834178 -0.837647 0.000000 0.000000 0.000000 -86.917149 -5.997396 -3.247034 4.531886 1.721852 0.190287 16.565857 4.076333 -1.793018 0.502464 -0.283709 -0.084868 0.000000 0.000000 0.000000 14.921212 3.782746 -2.304166 -2.360080 1.404368 -4.227475 21.238031 4.872292 -8.842526 0.000000 0.000000 0.000000 16.814479 3.366549 -1.659515 -0.426635 7.071146 1.856943 -0.320767 -0.985197 -3.084788 16.010202 -51.446785 -39.395377 -0.499067 -80.945767 -0.163276 0.000000 0.000000 0.000000 15.063940 3.573664 -2.039277 0.845978 2.135093 14.676719 1.216055 2.177124 1.815471 -34.225036 34.790398 62.320449 178.548371 53.677671 -179.937277 0.000000 0.000000 0.000000 
0.310300 124.620026 -5.835400 0.000000 0.000000 0.000000 -86.322786 -4.686304 -1.069972 4.196848 17.894653 17.236778 -1.937584 4.236667 3.469126 14.964569 28.337996 -24.649973 -3.733807 -0.372452 -0.171491 0.000000 0.000000 0.000000 -88.017725 -0.767347 1.329627 7.286415 -20.357966 -10.611598 0.375529 -3.079909 -6.695154 21.665422 -31.796682 25.587740 -10.074659 0.820503 -0.744141 0.000000 0.000000 0.000000 -86.940173 -6.415836 -3.398738 3.903882 1.560558 0.186846 16.280842 3.865147 -1.677934 0.621494 -0.105001 -0.140836 0.000000 0.000000 0.000000 14.712815 3.626864 -2.212375 -1.552550 1.233789 -4.082752 21.796322 5.022240 -9.067957 0.000000 0.000000 0.000000 16.620869 3.155218 -1.565593 -0.345404 6.453340 1.570906 -0.426281 -1.113793 -2.891932 17.102493 -50.438816 -39.641284 -0.564838 -81.173137 -0.359282 0.000000 0.000000 0.000000 14.953391 3.414953 -1.889031 0.895015 1.546882 14.884681 0.812790 2.328759 1.940980 -34.565432 35.859292 62.173450 178.455727 54.862156 -179.851722 0.000000 0.000000 0.000000 
0.312104 124.411758 -5.810890 0.000000 0.000000 0.000000 -86.038773 -5.071585 -1.543945 4.116971 17.538085 17.367627 -2.182945 4.579237 3.397477 15.539561 28.535082 -24.610597 -3.882115 -0.407862 -0.275116 0.000000 0.000000 0.000000 -87.682144 -1.287147 0.689168 6.728652 -20.465832 -10.525452 0.026808 -2.924992 -6.495246 22.811380 -31.205843 26.128516 -10.629595 0.794804 -0.632762 0.000000 0.000000 0.000000 -86.663120 -6.704034 -3.604666 3.200964 1.358212 0.253394 15.829771 3.509163 -1.507186 0.733748 0.130143 -0.150092 0.000000 0.000000 0.000000 14.269457 3.324788 -2.038506 -0.721060 1.045351 -3.831723 22.340912 4.889410 -9.171782 0.000000 0.000000 0.000000 16.231518 2.795021 -1.394939 -0.242808 5.791809 1.416883 -0.542418 -1.071563 -2.731280 18.179588 -49.340528 -40.461337 -0.707781 -81.561147 -0.685123 0.000000 0.000000 0.000000 14.677037 3.112306 -1.690396 0.917155 1.023601 14.961640 0.444463 2.607155 2.133357 -33.850271 37.091144 61.329751 178.354722 55.468362 -179.699777 0.000000 0.000000 0.000000 
0.342794 124.202957 -5.711880 0.000000 0.000000 0.000000 -85.567483 -5.432021 -2.136189 3.926889 17.254933 17.439295 -2.535994 4.921220 3.192773 16.472979 28.689547 -24.397938 -3.989623 -0.458248 -0.320477 0.000000 0.000000 0.000000 -87.141917 -1.693034 0.005939 6.245827 -20.505963 -10.453709 -0.480743 -2.838591 -6.286846 24.039358 -30.742613 26.699725 -11.135562 0.763521 -0.510883 0.000000 0.000000 0.000000 -86.168205 -6.872992 -3.907054 2.521658 1.128391 0.397814 15.199126 3.032597 -1.280539 0.825761 0.355809 -0.207532 0.000000 0.000000 0.000000 13.593619 2.900081 -1.792416 -0.023915 0.853725 -3.500910 22.725252 4.605752 -9.234533 0.000000 0.000000 0.000000 15.618220 2.321731 -1.162598 -0.127115 5.160405 1.348289 -0.645433 -1.012152 -2.640864 19.349397 -48.060565 -41.696413 -1.173855 -81.955406 -1.357740 0.000000 0.000000 0.000000 14.208989 2.692718 -1.451591 0.891809 0.573547 14.879417 0.165177 2.743081 2.344579 -32.131604 38.257580 59.692780 178.296638 55.351191 -179.525922 0.000000 0.000000 0.000000 
0.368335 124.022659 -5.472363 0.000000 0.000000 0.000000 -85.057643 -5.721463 -2.742196 3.699703 17.079730 17.430566 -2.948043 5.230583 2.899976 17.548614 28.795121 -24.110136 -4.043897 -0.510205 -0.306171 0.000000 0.000000 0.000000 -86.498813 -1.987170 -0.631061 5.907908 -20.506767 -10.346741 -1.083051 -2.890135 -6.125567 24.942842 -30.668994 26.992821 -11.504949 0.735940 -0.402423 0.000000 0.000000 0.000000 -85.542280 -6.940859 -4.272820 1.970089 0.897669 0.600573 14.402463 2.489782 -1.014717 0.919718 0.710011 -0.277587 0.000000 0.000000 0.000000 12.723000 2.399697 -1.496544 0.420020 0.682898 -3.174486 22.884446 4.268823 -9.348984 0.000000 0.000000 0.000000 14.797938 1.795569 -0.901626 -0.021647 4.557184 1.324213 -0.892526 -0.958032 -2.658961 20.645307 -46.565948 -43.130800 -2.146693 -82.180358 -2.499634 0.000000 0.000000 0.000000 13.534773 2.219949 -1.188490 0.783730 0.199775 14.729265 0.051579 2.649206 2.497863 -29.714946 39.106999 57.455162 178.326445 54.659231 -179.382324 0.000000 0.000000 0.000000 
0.406124 123.938065 -5.271603 0.000000 0.000000 0.000000 -84.569087 -5.954437 -3.276391 3.522551 16.987625 17.339467 -3.346462 5.477443 2.590224 18.620682 28.857139 -23.896959 -4.115983 -0.550650 -0.232976 0.000000 0.000000 0.000000 -85.897518 -2.265188 -1.221370 5.719714 -20.533167 -10.207414 -1.632517 -3.074993 -6.018027 25.474538 -30.963139 27.034126 -11.791534 0.720908 -0.328670 0.000000 0.000000 0.000000 -84.922119 -6.995592 -4.682744 1.599185 0.683706 0.813946 13.464733 1.937449 -0.748172 1.002147 1.001753 -0.410825 0.000000 0.000000 0.000000 11.722351 1.884455 -1.188271 0.555513 0.573001 -2.908620 22.795884 3.999468 -9.547634 0.000000 0.000000 0.000000 13.810126 1.281179 -0.647223 0.057716 3.999950 1.267689 -1.178256 -0.991612 -2.772318 21.948374 -44.903077 -44.564310 -3.520023 -82.201497 -3.963422 0.000000 0.000000 0.000000 12.702444 1.754470 -0.929840 0.577853 -0.094823 14.587800 0.112721 2.379412 2.787976 -26.954689 39.545996 54.994986 178.413653 53.836623 -179.257058 0.000000 0.000000 0.000000 
0.412951 123.934029 -5.088722 0.000000 0.000000 0.000000 -84.202750 -6.142382 -3.678974 3.491652 16.998637 17.168321 -3.636744 5.668507 2.327768 19.532924 28.866647 -23.861107 -4.258374 -0.568555 -0.130014 0.000000 0.000000 0.000000 -85.489045 -2.520036 -1.667076 5.636296 -20.594600 -10.111392 -2.013342 -3.229354 -5.937512 25.823695 -31.362644 27.078341 -12.135678 0.721209 -0.302963 0.000000 0.000000 0.000000 -84.430359 -7.079106 -5.065584 1.430004 0.492016 0.968664 12.408847 1.424476 -0.516059 1.116282 1.316910 -0.514529 0.000000 0.000000 0.000000 10.661211 1.415898 -0.910522 0.428697 0.539960 -2.755785 22.531886 3.878101 -9.819744 0.000000 0.000000 0.000000 12.701305 0.840253 -0.430272 0.102349 3.544074 1.109035 -1.456517 -1.050278 -2.908343 23.129338 -43.210126 -45.825187 -4.731936 -82.021665 -5.189808 0.000000 0.000000 0.000000 11.740681 1.347446 -0.716323 0.287369 -0.307987 14.497905 0.327883 2.135224 3.156286 -24.219419 39.548865 52.772545 178.519042 53.259530 -179.135207 0.000000 0.000000 0.000000 
